<svg width="54" height="20" viewBox="0 0 54 20" fill="none" xmlns="http://www.w3.org/2000/svg">
<path d="M49.2856 12.6736C48.5661 12.6736 47.8415 12.4425 47.2814 12.047C46.5216 11.512 45.9728 10.6254 45.8497 9.73374C45.7468 8.98904 45.9326 8.2996 46.3872 7.73951C46.6497 7.41676 47.1244 7.36779 47.4471 7.63025C47.7699 7.89272 47.8189 8.36742 47.5564 8.69016C47.3693 8.91998 47.2977 9.20253 47.3417 9.52779C47.4082 10.0125 47.7247 10.5174 48.1479 10.815C48.7758 11.257 49.8093 11.3349 50.2878 10.7409C50.3481 10.6668 50.397 10.5864 50.4335 10.5023C50.6017 10.1218 51.0463 9.94849 51.4268 10.1168C51.8073 10.285 51.9806 10.7296 51.8123 11.1101C51.7219 11.3161 51.6026 11.5095 51.4595 11.6865C50.9044 12.3785 50.0982 12.6736 49.2856 12.6736Z" fill="#ADADAD"/>
<path d="M5.71018 6.91828C5.48916 6.91828 5.26939 6.82158 5.12121 6.63447L2.49279 3.34298C2.23283 3.01772 2.28683 2.54302 2.61084 2.28432C2.93609 2.02437 3.41079 2.07837 3.66949 2.40237L6.29791 5.69386C6.55786 6.01912 6.50386 6.49381 6.17986 6.75251C6.04172 6.86428 5.87595 6.91828 5.71018 6.91828Z" fill="#ADADAD"/>
<path d="M5.68632 3.6266H1.10009C0.684417 3.6266 0.346603 3.28879 0.346603 2.87312C0.346603 2.45744 0.684417 2.11963 1.10009 2.11963H5.68632C6.102 2.11963 6.43981 2.45744 6.43981 2.87312C6.43981 3.28879 6.102 3.6266 5.68632 3.6266Z" fill="#ADADAD"/>
<path d="M53.6843 12.5612L53.6844 12.5614C53.7631 12.6991 53.8034 12.8555 53.8034 13.0151V13.0159L53.7821 16.8826V16.8826C53.779 17.3793 53.3757 17.7815 52.8786 17.7815H45.8155C44.9914 18.8911 43.6711 19.6124 42.1841 19.6124C40.697 19.6124 39.3767 18.8911 38.5526 17.7815H24.8488H24.8488H24.8488H24.8487H24.8487H24.8487H24.8487H24.8487H24.8486H24.8486H24.8486H24.8486H24.8486H24.8486H24.8485H24.8485H24.8485H24.8485H24.8485H24.8485H24.8485H24.8484H24.8484H24.8484H24.8484H24.8484H24.8484H24.8483H24.8483H24.8483H24.8483H24.8483H24.8483H24.8483H24.8482H24.8482H24.8482H24.8482H24.8482H24.8482H24.8481H24.8481H24.8481H24.8481H24.8481H24.8481H24.848H24.848H24.848H24.848H24.848H24.848H24.8479H24.8479H24.8479H24.8479H24.8479H24.8479H24.8479H24.8478H24.8478H24.8478H24.8478H24.8478H24.8478H24.8477H24.8477H24.8477H24.8477H24.8477H24.8477H24.8476H24.8476H24.8476H24.8476H24.8476H24.8476H24.8475H24.8475H24.8475H24.8475H24.8475H24.8475H24.8474H24.8474H24.8474H24.8474H24.8474H24.8474H24.8473H24.8473H24.8473H24.8473H24.8473H24.8473H24.8472H24.8472H24.8472H24.8472H24.8472H24.8472H24.8471H24.8471H24.8471H24.8471H24.8471H24.847H24.847H24.847H24.847H24.847H24.847H24.8469H24.8469H24.8469H24.8469H24.8469H24.8469H24.8468H24.8468H24.8468H24.8468H24.8468H24.8468H24.8467H24.8467H24.8467H24.8467H24.8467H24.8466H24.8466H24.8466H24.8466H24.8466H24.8466H24.8465H24.8465H24.8465H24.8465H24.8465H24.8465H24.8464H24.8464H24.8464H24.8464H24.8464H24.8463H24.8463H24.8463H24.8463H24.8463H24.8463H24.8462H24.8462H24.8462H24.8462H24.8462H24.8462H24.8461H24.8461H24.8461H24.8461H24.8461H24.846H24.846H24.846H24.846H24.846H24.846H24.8459H24.8459H24.8459H24.8459H24.8459H24.8458H24.8458H24.8458H24.8458H24.8458H24.8458H24.8457H24.8457H24.8457H24.8457H24.8457H24.8456H24.8456H24.8456H24.8456H24.8456H24.8456H24.8455H24.8455H24.8455H24.8455H24.8455H24.8454H24.8454H24.8454H24.8454H24.8454H24.8454H24.8453H24.8453H24.8453H24.8453H24.8453H24.8452H24.8452H24.8452H24.8452H24.8452H24.8452H24.8451H24.8451H24.8451H24.8451H24.8451H24.845H24.845H24.845H24.845H24.845H24.845H24.8449H24.8449H24.8449H24.8449H24.8449H24.8448H24.8448H24.8448H24.8448H24.8448H24.8448H24.8447H24.8447H24.8447H24.8447H24.8447H24.8446H24.8446H24.8446H24.8446H24.8446H24.8446H24.8445H24.8445H24.8445H24.8445H24.8445H24.8444H24.8444H24.8444H24.8444H24.8444H24.8443H24.8443H24.8443H24.8443H24.8443H24.8443H24.8442H24.8442H24.8442H24.8442H24.8442H24.8441H24.8441H24.8441H24.8441H24.8441H24.8441H24.844H24.844H24.844H24.844H24.844H24.8439H24.8439H24.8439H24.8439H24.8439H24.8439H24.8438H24.8438H24.8438H24.8438H24.8438H24.8437H24.8437H24.8437H24.8437H24.8437H24.8437H24.8436H24.8436H24.8436H24.8436H24.8436H24.8435H24.8435H24.8435H24.8435H24.8435H24.8434H24.8434H24.8434H24.8434H24.8434H24.8434H24.8433H24.8433H24.8433H24.8433H24.8433H24.8432H24.8432H24.8432H24.8432H24.8432H24.8432H24.8431H24.8431H24.8431H24.8431H24.8431H24.8431H24.843H24.843H24.843H24.843H24.843H24.8429H24.8429H24.8429H24.8429H24.8429H24.8429H24.8428H24.8428H24.8428H24.8428H24.8428H24.8427H24.8427H24.8427H24.8427H24.8427H24.8427H24.8426H24.8426H24.8426H24.8426H24.8426H24.8425H24.8425H24.8425H24.8425H24.8425H24.8425H24.8424H24.8424H24.8424H24.8424H24.8424H24.8424H24.8423H24.8423H24.8423H24.8423H24.8423H24.8422H24.8422H24.8422H24.8422H24.8422H24.8422H24.8421H24.8421H24.8421H24.8421H24.8421H24.8421H24.842H24.842H24.842H24.842H24.842H24.8419H24.8419H24.8419H24.8419H24.8419H24.8419H24.8418H24.8418H24.8418H24.8418H24.8418H24.8418H24.8417H24.8417H24.8417H24.8417H24.8417H24.8417H24.8416H24.8416H24.8416H24.8416H24.8416H24.8416H24.8415H24.8415H24.8415H24.8415H24.8415H24.8415H24.8414H24.8414H24.8414H24.8414H24.8414H24.8414H24.8413H24.8413H24.8413H24.8413H24.8413H24.8413H24.8412H24.8412H24.8412H24.8412H24.8412H24.8412H24.8411H24.8411H24.8411H24.8411H24.8411H24.8411H24.841H24.841H24.841H24.841H24.841H24.841H24.8409H24.8409H24.8409H24.8409H24.8409H24.8409H24.8408H24.8408H24.8408H24.8408H24.8408H24.8408H24.8407H24.8407H24.8407H24.8407H24.8407H24.8407H24.8407H24.8406H24.8406H24.8406H24.8406H24.8406H24.8406H24.8405H24.8405H24.8405H24.8405H24.8405H24.8405H24.8404H24.8404H24.8404H24.8404H24.8404H24.8404H24.8404H24.8403H24.8403H24.8403H24.8403H24.8403H24.8403H24.8402H24.8402H24.8402H24.8402H24.8402H24.8402H24.8401H24.8401H24.8401H24.8401H24.8401H24.8401H24.84H24.84H24.84H24.84H24.8399H24.8399H24.8399H24.8399H24.8399H24.8398H24.8398H24.8398H24.8398H24.8397H24.8397H24.8397H24.8397H24.8397H24.8396H24.8396H24.8396H24.8396H24.8396H24.8395H24.8395H24.8395H24.8395H24.8394H24.8394H24.8394H24.8394H24.8394H24.8393H24.8393H24.8393H24.8393H24.8393H24.8392H24.8392H24.8392H24.8392H24.8391H24.8391H24.8391H24.8391H24.8391H24.839H24.839H24.839H24.839H24.839H24.8389H24.8389H24.8389H24.8389H24.8389H24.8388H24.8388H24.8388H24.8388H24.8388H24.8387H24.8387H24.8387H24.8387H24.8386H24.8386H24.8386H24.8386H24.8386H24.8385H24.8385H24.8385H24.8385H24.8385H24.8384H24.8384H24.8384H24.8384H24.8384H24.8383H24.8383H24.8383H24.8383H24.8383H24.8382H24.8382H24.8382H24.8382H24.8382H24.8381H24.8381H24.8381H24.8381H24.8381H24.838H24.838H24.838H24.838H24.838H24.8379H24.8379H24.8379H24.8379H24.8379H24.8378H24.8378H24.8378H24.8378H24.8378H24.8377H24.8377H24.8377H24.8377H24.8377H24.8377H24.8376H24.8376H24.8376H24.8376H24.8376H24.8375H24.8375H24.8375H24.8375H24.8375H24.8374H24.8374H24.8374H24.8374H24.8374H24.8373H24.8373H24.8373H24.8373H24.8373H24.8372H24.8372H24.8372H24.8372H24.8372H24.8371H24.8371H24.8371H24.8371H24.8371H24.8371H24.837H24.837H24.837H24.837H24.837H24.8369H24.8369H24.8369H24.8369H24.8369H24.8368H24.8368H24.8368H24.8368H24.8368H24.8367H24.8367H24.8367H24.8367H24.8367H24.8367H24.8366H24.8366H24.8366H24.8366H24.8366H24.8365H24.8365H24.8365H24.8365H24.8365H24.8364H24.8364H24.8364H24.8364H24.8364H24.8364H24.8363H24.8363H24.8363H24.8363H24.8363H24.8362H24.8362H24.8362H24.8362H24.8362H24.8361H24.8361H24.8361H24.8361H24.8361H24.8361H24.836H24.836H24.836H24.836H24.836H24.8359H24.8359H24.8359H24.8359H24.8359H24.8359H24.8358H24.8358H24.8358H24.8358H24.8358H24.8357H24.8357H24.8357H24.8357H24.8357H24.8356H24.8356H24.8356H24.8356H24.8356H24.8356H24.8355H24.8355H24.8355H24.8355H24.8355H24.8354H24.8354H24.8354H24.8354H24.8354H24.8354H24.8353H24.8353H24.8353H24.8353H24.8353H24.8352H24.8352H24.8352H24.8352H24.8352H24.8351H24.8351H24.8351H24.8351H24.8351H24.8351H24.835H24.835H24.835H24.835H24.835H24.8349H24.8349H24.8349H24.8349H24.8349H24.8349H24.8348H24.8348H24.8348H24.8348H24.8348H24.8347H24.8347H24.8347H24.8347H24.8347H24.8347H24.8346H24.8346H24.8346H24.8346H24.8346H24.8345H24.8345H24.8345H24.8345H24.8345H24.8345H24.8344H24.8344H24.8344H24.8344H24.8344H24.8343H24.8343H24.8343H24.8343H24.8343H24.8342H24.8342H24.8342H24.8342H24.8342H24.8342H24.8341H24.8341H24.8341H24.8341H24.8341H24.834H24.834H24.834H24.834H24.834H24.834H24.8339H24.8339H24.8339H24.8339H24.8339H24.8338H24.8338H24.8338H24.8338H24.8338H24.8337H24.8337H24.8337H24.8337H24.8337H24.8337H24.8336H24.8336H24.8336H24.8336H24.8336H24.8335H24.8335H24.8335H24.8335H24.8335H24.8334H24.8334H24.8334H24.8334H24.8334H24.8334H24.8333H24.8333H24.8333H24.8333H24.8333H24.8332H24.8332H24.8332H24.8332H24.8332H24.8331H24.8331H24.8331H24.8331H24.8331H24.833H24.833H24.833H24.833H24.833H24.833H24.8329H24.8329H24.8329H24.8329H24.8329H24.8328H24.8328H24.8328H24.8328H24.8328H24.8327H24.8327H24.8327H24.8327H24.8327H24.8326H24.8326H24.8326H24.8326H24.8326H24.8326H24.8325H24.8325H24.8325H24.8325H24.8325H24.8324H24.8324H24.8324H24.8324H24.8324H24.8323H24.8323H24.8323H24.8323H24.8323H24.8322H24.8322H24.8322H24.8322H24.8322H24.8321H24.8321H24.8321H24.8321H24.8321H24.832H24.832H24.832H24.832H24.832H24.8319H24.8319H24.8319H24.8319H24.8319H24.8318H24.8318H24.8318H24.8318H24.8318H24.8317H24.8317H24.8317H24.8317H24.8317H24.8316H24.8316H24.8316H24.8316H24.8316H24.8315H24.8315H24.8315H24.8315H24.8315H24.8314H24.8314H24.8314H24.8314H24.8314H24.8313H24.8313H24.8313H24.8313H24.8313H24.8312H24.8312H24.8312H24.8312H24.8312H24.8311H24.8311H24.8311H24.8311H24.8311H24.831H24.831H24.831H24.831H24.8309H24.8309H24.8309H24.8309H24.8309H24.8308H24.8308H24.8308H24.8308H24.8308H24.8307H24.8307H24.8307H24.8307H24.8307H24.8306H24.8306H24.8306H24.8306H24.8305H24.8305H24.8305H24.8305H24.8305H24.8304H24.8304H24.8304H24.8304H24.8304H24.8303H24.8303H24.8303H24.8303H24.8302H24.8302H24.8302H24.8302H24.8302H24.8301H24.8301H24.8301H24.8301H24.83H24.83H24.83H24.83H24.83H16.4282C15.6041 18.8911 14.2838 19.6124 12.7968 19.6124C11.3097 19.6124 9.98943 18.8911 9.1653 17.7815H5.71145C5.3125 17.7815 4.96019 17.5196 4.84569 17.1371L53.6843 12.5612ZM53.6843 12.5612C53.1852 11.6906 52.5299 10.8776 51.7386 10.1448C50.5657 9.05721 49.0796 8.12923 47.325 7.38409C44.7591 6.29121 42.351 5.88915 41.5537 5.77806C40.3627 4.82464 34.4526 0.388574 27.5626 0.388574C15.8328 0.388574 5.74893 5.14509 5.32028 5.34988L5.31994 5.35004C5.00713 5.50043 4.8067 5.81647 4.8067 6.16462V9.5849H3.79257C3.50632 9.5849 3.23823 9.72052 3.06814 9.94931C2.89804 10.1781 2.84526 10.4748 2.92814 10.749L4.84565 17.137L53.6843 12.5612ZM8.35922 15.9732C8.30221 15.6869 8.27149 15.3917 8.27149 15.0884C8.27149 12.5944 10.3002 10.5657 12.7942 10.5657C15.2882 10.5657 17.317 12.5944 17.317 15.0884C17.317 15.3901 17.2866 15.6848 17.2301 15.9695H23.22L20.4547 11.4847C20.4488 11.4761 20.4443 11.4682 20.4412 11.4628C20.4348 11.4516 20.4367 11.4548 20.4364 11.4541C20.4362 11.4538 20.4356 11.4528 20.4337 11.4494L20.4331 11.4483C19.9395 10.5673 20.0937 9.45738 20.8103 8.75147L21.7842 7.79094L15.1118 6.95899C15.1117 6.95898 15.1116 6.95897 15.1116 6.95897L15.1115 6.95896L15.1301 6.81011C14.7521 6.76364 14.4695 6.44341 14.4695 6.0629L8.35922 15.9732ZM8.35922 15.9732H6.38187L5.0064 11.3919H5.71019C6.20871 11.3919 6.61368 10.9869 6.61368 10.4884V6.74865C7.72151 6.26513 10.5366 5.11107 14.3195 4.08487L8.35922 15.9732ZM16.1277 5.26613V3.62537C18.5728 3.04322 21.3266 2.55315 24.229 2.32819L23.1047 6.13689L16.1277 5.26613ZM22.0779 10.0417L22.0783 10.0414L24.0685 8.0781L36.1439 9.58486L36.1446 9.58495C36.1795 9.58914 36.2173 9.59229 36.2554 9.59229C36.3749 9.59229 36.4921 9.56809 36.6012 9.52327L36.6017 9.52306L41.3059 7.56963C42.0047 7.66843 44.2598 8.04322 46.6186 9.04783L46.6187 9.0479C48.1885 9.71443 49.4965 10.5308 50.5111 11.4712L50.5112 11.4713C51.1072 12.0223 51.6054 12.6222 51.9962 13.2566L51.9797 15.9732H46.6192C46.6761 15.6874 46.7068 15.3915 46.7068 15.0884C46.7068 12.5944 44.6781 10.5657 42.1841 10.5657C39.69 10.5657 37.6613 12.5944 37.6613 15.0884C37.6613 15.3917 37.692 15.6869 37.749 15.9732H25.3419L22.003 10.5574C21.9145 10.3851 21.948 10.169 22.0779 10.0417ZM27.5614 2.19555C32.6074 2.19555 37.2361 4.93301 39.3706 6.41569L36.129 7.76146L24.9196 6.3629L26.1426 2.22047C26.6127 2.20419 27.086 2.19555 27.5614 2.19555ZM12.7942 17.8042C11.2973 17.8042 10.0785 16.5854 10.0785 15.0884C10.0785 13.5915 11.2973 12.3727 12.7942 12.3727C14.2912 12.3727 15.51 13.5915 15.51 15.0884C15.51 16.5854 14.2924 17.8042 12.7942 17.8042ZM42.1841 17.8042C40.6871 17.8042 39.4683 16.5854 39.4683 15.0884C39.4683 13.5915 40.6871 12.3727 42.1841 12.3727C43.681 12.3727 44.8998 13.5915 44.8998 15.0884C44.8998 16.5854 43.6822 17.8042 42.1841 17.8042Z" fill="#ADADAD" stroke="#ADADAD" stroke-width="0.3"/>
<path d="M27.8414 11.9829C27.8112 11.9829 27.7798 11.9817 27.7497 11.9779L25.4993 11.7042C25.0861 11.6539 24.7923 11.2784 24.8425 10.8653C24.8927 10.4521 25.2695 10.157 25.6814 10.2085L27.9318 10.4822C28.345 10.5325 28.6388 10.908 28.5886 11.3211C28.5421 11.7029 28.2169 11.9829 27.8414 11.9829Z" fill="#ADADAD"/>
<path d="M12.8081 15.8419H12.7829C12.3673 15.8419 12.0294 15.5041 12.0294 15.0884C12.0294 14.6728 12.3673 14.335 12.7829 14.335H12.8081C13.2237 14.335 13.5615 14.6728 13.5615 15.0884C13.5615 15.5041 13.2237 15.8419 12.8081 15.8419Z" fill="#ADADAD"/>
<path d="M42.1966 15.8419H42.1715C41.7558 15.8419 41.418 15.5041 41.418 15.0884C41.418 14.6728 41.7558 14.335 42.1715 14.335H42.1966C42.6123 14.335 42.9501 14.6728 42.9501 15.0884C42.9501 15.5041 42.6135 15.8419 42.1966 15.8419Z" fill="#ADADAD"/>
</svg>
