<svg width="50" height="50" viewBox="0 0 50 50" fill="none" xmlns="http://www.w3.org/2000/svg">
<path d="M33.5267 45.3411H16.2407C15.836 45.3411 15.5081 45.0132 15.5081 44.6085V35.1259C15.5081 34.7213 15.836 34.3934 16.2407 34.3934H20.0232C20.3604 32.8236 21.7593 31.6446 23.4279 31.6446H24.1523V30.3608H22.7139C22.3093 30.3608 21.9825 30.0341 21.9814 29.6294L21.9791 28.3911C20.2698 28.005 18.7616 27.2725 17.4674 26.1992C11.4116 25.1283 8.92905 21.1376 7.91277 17.9585C6.81975 14.5376 7.16394 11.3957 7.17905 11.2643C7.22208 10.8946 7.53487 10.6155 7.90696 10.6155H12.0453C12.0477 9.66781 12.086 8.88292 12.1244 8.33874H11.9163C11.5116 8.33874 11.1837 8.01083 11.1837 7.60618V5.39223C11.1837 4.98757 11.5116 4.65967 11.9163 4.65967H38.0837C38.4884 4.65967 38.8163 4.98757 38.8163 5.39223V7.60502C38.8163 8.00967 38.4884 8.33757 38.0837 8.33757H37.8756C37.9128 8.8806 37.9523 9.66548 37.9546 10.6143H42.093C42.4651 10.6143 42.7779 10.8934 42.8209 11.2632C42.836 11.3957 43.1814 14.5376 42.0872 17.9573C41.0709 21.1364 38.5884 25.1283 32.5325 26.198C31.1511 27.3457 29.5244 28.1027 27.6698 28.4643L27.6721 29.6259C27.6721 29.8201 27.5953 30.0073 27.4581 30.1445C27.3209 30.2818 27.1337 30.3597 26.9395 30.3597H25.6163V31.6434H26.2244C27.893 31.6434 29.2907 32.8236 29.6291 34.3922H33.5267C33.9314 34.3922 34.2593 34.7201 34.2593 35.1248V44.6073C34.2593 45.0132 33.9314 45.3411 33.5267 45.3411ZM16.9732 43.8759H32.7942V35.8585H16.9732V43.8759ZM21.5488 34.3934H28.1046C27.8104 33.6422 27.0791 33.1097 26.2256 33.1097H23.4279C22.5732 33.1097 21.8418 33.6422 21.5488 34.3934ZM24.8837 28.8946H26.2046V28.6632C25.8116 28.6945 25.4104 28.7108 25 28.7108C24.4663 28.7108 23.9477 28.6841 23.4442 28.6306V28.8946H24.8837ZM12.6488 6.87246H12.9232C13.1314 6.87246 13.3302 6.96199 13.4698 7.11664C13.6093 7.27246 13.6744 7.47944 13.6511 7.68757C13.6395 7.79571 12.4825 18.5992 17.3814 24.0829C19.257 26.1818 21.8198 27.2457 25 27.2457C28.1802 27.2457 30.743 26.1818 32.6186 24.0829C37.5174 18.6004 36.3616 7.79688 36.3488 7.68757C36.3256 7.4806 36.3918 7.27246 36.5302 7.11664C36.6686 6.96083 36.8674 6.87246 37.0767 6.87246H37.3511V6.12478H12.6488V6.87246ZM37.9279 12.0794C37.7918 15.6585 37.0651 20.6132 34.4104 24.198C37.5023 23.0922 39.6058 20.8666 40.6767 17.555C41.4058 15.3015 41.443 13.1271 41.4046 12.0794H37.9279ZM8.59417 12.0794C8.55696 13.1259 8.59301 15.3004 9.32208 17.555C10.393 20.8666 12.4965 23.0934 15.5884 24.198C12.9337 20.6132 12.207 15.6585 12.0709 12.0794H8.59417Z" fill="#00152B"/>
<path d="M27.0582 42.0251H22.6663C22.2617 42.0251 21.9338 41.6972 21.9338 41.2925C21.9338 40.8879 22.2617 40.56 22.6663 40.56H27.0582C27.4628 40.56 27.7907 40.8879 27.7907 41.2925C27.7907 41.6972 27.4628 42.0251 27.0582 42.0251ZM29.0349 39.2925H20.6896C20.2849 39.2925 19.957 38.9646 19.957 38.56C19.957 38.1553 20.2849 37.8274 20.6896 37.8274H29.0349C29.4396 37.8274 29.7675 38.1553 29.7675 38.56C29.7675 38.9646 29.4396 39.2925 29.0349 39.2925ZM28.3617 20.2739C28.2454 20.2739 28.128 20.246 28.021 20.1902L25.0431 18.6251L22.0652 20.1902C21.8186 20.3204 21.5198 20.2983 21.2942 20.1344C21.0686 19.9704 20.9559 19.6925 21.0024 19.4181L21.571 16.103L19.1617 13.7553C18.9617 13.5611 18.8896 13.2693 18.9768 13.0041C19.0628 12.739 19.2919 12.546 19.5686 12.5053L22.8977 12.0216L24.3861 9.00531C24.5093 8.75531 24.764 8.59717 25.0431 8.59717C25.3221 8.59717 25.5768 8.75531 25.7 9.00531L27.1884 12.0216L30.5175 12.5053C30.7931 12.5448 31.0221 12.739 31.1094 13.0041C31.1954 13.2693 31.1233 13.56 30.9245 13.7553L28.5152 16.103L29.0838 19.4181C29.1314 19.6925 29.0175 19.9704 28.7919 20.1344C28.664 20.2274 28.5128 20.2739 28.3617 20.2739ZM25.0431 17.0646C25.1605 17.0646 25.2768 17.0925 25.3838 17.1483L27.3884 18.2018L27.0059 15.9704C26.9652 15.7332 27.0442 15.4902 27.2163 15.3216L28.8384 13.7402L26.5977 13.4146C26.3593 13.3797 26.1524 13.2297 26.0466 13.0134L25.0442 10.9832L24.0419 13.0134C23.9349 13.2297 23.7291 13.3797 23.4907 13.4146L21.25 13.7402L22.8721 15.3216C23.0442 15.4902 23.1233 15.7321 23.0826 15.9704L22.7 18.2018L24.7047 17.1483C24.8093 17.0925 24.9268 17.0646 25.0431 17.0646Z" fill="#00152B"/>
</svg>
