<svg width="50" height="50" viewBox="0 0 50 50" fill="none" xmlns="http://www.w3.org/2000/svg">
<path d="M24.246 26.0203C23.914 26.0203 23.645 25.7513 23.645 25.4203C23.645 25.0893 23.914 24.8203 24.245 24.8203C24.576 24.8203 24.845 25.0893 24.845 25.4203C24.845 25.7513 24.577 26.0203 24.246 26.0203Z" fill="#00152B"/>
<path d="M27.729 26.0213H27.728C27.397 26.0213 27.128 25.7523 27.128 25.4213C27.128 25.0903 27.397 24.8213 27.728 24.8213C28.059 24.8213 28.329 25.0903 28.329 25.4213C28.329 25.7523 28.06 26.0213 27.729 26.0213Z" fill="#00152B"/>
<path d="M33.623 42.7761L21.262 42.7711C20.931 42.7711 20.662 42.5021 20.662 42.1711L20.663 38.2321C18.509 36.7311 16.951 34.5241 16.261 31.9841L14.843 26.7671C14.8 26.6081 14.779 26.4471 14.779 26.2861C14.779 25.4891 15.287 24.7881 16.044 24.5401C17.005 24.2251 18.028 24.3101 18.924 24.7791C19.417 25.0371 19.836 25.3921 20.162 25.8211V25.4211C20.162 25.0901 20.431 24.8211 20.762 24.8211C21.093 24.8211 21.362 25.0901 21.362 25.4211C21.362 25.4291 21.362 25.4371 21.362 25.4451L21.361 29.1001C21.361 29.3981 21.142 29.6501 20.848 29.6931C20.554 29.7351 20.272 29.5561 20.187 29.2711L19.614 27.3521C19.418 26.6961 18.976 26.1591 18.369 25.8421C17.762 25.5241 17.07 25.4671 16.419 25.6801C16.156 25.7661 15.98 26.0091 15.98 26.2861C15.98 26.3421 15.988 26.3991 16.003 26.4541L17.42 31.6691C18.062 34.0311 19.544 36.0701 21.593 37.4111C21.762 37.5221 21.864 37.7111 21.864 37.9131L21.863 41.5711L33.024 41.5761L33.026 37.9171C33.026 37.8311 33.044 37.7471 33.08 37.6691C33.09 37.6471 34.093 35.3811 34.094 32.0411C34.095 30.1141 34.095 28.3181 34.095 27.0841L34.096 25.4231C34.096 25.0921 34.365 24.8231 34.696 24.8231C35.027 24.8231 35.296 25.0921 35.296 25.4231L35.295 27.0841C35.295 28.3181 35.295 30.1141 35.294 32.0411C35.293 35.2391 34.452 37.4931 34.226 38.0401L34.224 42.1761C34.223 42.5071 33.954 42.7761 33.623 42.7761Z" fill="#00152B"/>
<path d="M24.245 27.6797C23.913 27.6797 23.645 27.4107 23.645 27.0797L23.649 15.2247C23.649 14.5057 23.169 13.9827 22.508 13.9827C21.911 13.9827 21.366 14.4787 21.366 15.0247L21.362 27.0797C21.362 27.4107 21.093 27.6797 20.762 27.6797C20.431 27.6797 20.162 27.4107 20.162 27.0797L20.166 15.0247C20.166 13.8097 21.239 12.7837 22.508 12.7837C22.508 12.7837 22.508 12.7837 22.509 12.7837C23.822 12.7837 24.85 13.8567 24.85 15.2257L24.846 27.0807C24.845 27.4107 24.576 27.6797 24.245 27.6797Z" fill="#00152B"/>
<path d="M31.211 27.682C30.879 27.682 30.611 27.413 30.611 27.082L30.613 21.816C30.613 21.132 30.057 20.574 29.372 20.574C28.798 20.574 28.33 21.041 28.33 21.616L28.328 27.081C28.328 27.412 28.059 27.681 27.728 27.681C27.397 27.681 27.128 27.412 27.128 27.081L27.13 21.616C27.13 20.38 28.136 19.375 29.372 19.375C29.372 19.375 29.372 19.375 29.373 19.375C30.719 19.375 31.814 20.471 31.814 21.817L31.812 27.083C31.811 27.414 31.542 27.682 31.211 27.682Z" fill="#00152B"/>
<path d="M34.694 27.6832C34.362 27.6832 34.094 27.4142 34.094 27.0832L34.095 24.6662C34.095 24.3612 33.976 24.0742 33.761 23.8592C33.545 23.6432 33.259 23.5242 32.954 23.5242C32.954 23.5242 32.954 23.5242 32.953 23.5242C32.595 23.5242 32.288 23.6092 32.087 23.7632C31.902 23.9052 31.812 24.1032 31.812 24.3702L31.811 27.0822C31.811 27.4132 31.542 27.6822 31.211 27.6822C30.88 27.6822 30.611 27.4132 30.611 27.0822L30.612 24.3702C30.612 23.7322 30.877 23.1782 31.358 22.8102C31.773 22.4922 32.325 22.3242 32.953 22.3242H32.954C33.579 22.3242 34.167 22.5682 34.609 23.0102C35.051 23.4522 35.295 24.0412 35.294 24.6662L35.293 27.0832C35.294 27.4152 35.025 27.6832 34.694 27.6832Z" fill="#00152B"/>
<path d="M27.728 27.6809C27.397 27.6809 27.128 27.4119 27.128 27.0809L27.13 12.8459C27.13 12.2159 26.618 11.7039 25.989 11.7039C25.36 11.7039 24.848 12.2159 24.847 12.8449L24.845 27.0799C24.845 27.4109 24.576 27.6799 24.245 27.6799C23.914 27.6799 23.645 27.4109 23.645 27.0799L23.647 12.8449C23.647 11.5539 24.698 10.5039 25.989 10.5039C25.989 10.5039 25.989 10.5039 25.99 10.5039C27.281 10.5039 28.331 11.5549 28.331 12.8459L28.329 27.0809C28.328 27.4129 28.059 27.6809 27.728 27.6809Z" fill="#00152B"/>
<path d="M17.888 16.6219C17.614 16.6219 17.366 16.4329 17.303 16.1539C17.098 15.2469 17.135 14.2959 17.412 13.4019C18.016 11.4459 19.717 9.98595 21.745 9.68295C22.073 9.63395 22.378 9.85994 22.427 10.1879C22.476 10.5159 22.25 10.8209 21.922 10.8699C20.348 11.1049 19.028 12.2379 18.559 13.7569C18.344 14.4499 18.315 15.1879 18.474 15.8889C18.547 16.2119 18.344 16.5339 18.021 16.6069C17.977 16.6169 17.932 16.6219 17.888 16.6219Z" fill="#00152B"/>
<path d="M30.642 14.2076C30.6 14.2076 30.557 14.2036 30.514 14.1936C30.19 14.1236 29.985 13.8036 30.055 13.4806C30.507 11.3936 29.26 9.26462 27.216 8.63262C25.352 8.05562 23.308 8.87062 22.357 10.5696C22.195 10.8586 21.83 10.9616 21.54 10.7996C21.251 10.6376 21.148 10.2716 21.31 9.98262C22.537 7.79262 25.169 6.74262 27.571 7.48562C28.861 7.88462 29.944 8.74562 30.622 9.91162C31.296 11.0706 31.511 12.4276 31.228 13.7336C31.167 14.0156 30.919 14.2076 30.642 14.2076Z" fill="#00152B"/>
</svg>
