<svg width="50" height="50" viewBox="0 0 50 50" fill="none" xmlns="http://www.w3.org/2000/svg">
<path d="M26.4442 17.3556C26.3512 17.1952 26.1989 17.0789 26.021 17.0301L21.5245 15.8254C21.1524 15.7266 20.7698 15.9463 20.6698 16.3184L19.7663 19.6905L13.7431 42.1708C13.6954 42.3498 13.7198 42.5394 13.8128 42.6998C13.9059 42.8603 14.0582 42.9766 14.2361 43.0254L18.7326 44.2301C18.7931 44.2463 18.8535 44.2545 18.914 44.2545C19.2221 44.2545 19.5035 44.0487 19.5873 43.737L25.6105 21.2568L26.514 17.8847C26.5617 17.7056 26.5361 17.5149 26.4442 17.3556ZM21.8373 17.3533L24.9849 18.1963L24.4431 20.2208L21.2942 19.3777L21.8373 17.3533ZM18.4187 42.7022L15.271 41.8591L20.9338 20.7266L24.0814 21.5696L18.4187 42.7022Z" fill="#00152B"/>
<path d="M37.1291 9.73717C37.0361 9.57671 36.8838 9.46043 36.7058 9.41159L33.5861 8.57554C33.307 8.50113 33.0221 8.60694 32.8547 8.82206C32.8547 8.82206 32.8547 8.82322 32.8535 8.82322C32.8407 8.84066 32.8279 8.8581 32.8163 8.87671C32.814 8.8802 32.8117 8.88485 32.8093 8.88834C32.8 8.90345 32.7907 8.91857 32.7826 8.93485C32.7791 8.94182 32.7768 8.9488 32.7733 8.95578C32.7663 8.96973 32.7605 8.98368 32.7547 8.99764C32.7512 9.00694 32.7477 9.0174 32.7454 9.02671C32.7419 9.03717 32.7372 9.04764 32.7349 9.0581C32.7337 9.06159 32.7326 9.06624 32.7314 9.06973C32.6314 9.44182 32.2477 9.66392 31.8756 9.56392L30.2337 9.12438C29.9244 9.04182 29.6675 8.81392 29.5489 8.51624L29.0582 7.29066C28.9768 7.08717 28.8035 6.93368 28.5907 6.87671L25.3744 6.01508C22.3675 5.20927 19.1593 6.25229 17.2012 8.67322L12.9326 13.9523C12.7175 14.2186 12.7268 14.6011 12.9547 14.8558C13.1826 15.1104 13.5616 15.1628 13.85 14.979C18.0965 12.2697 20.107 11.7279 20.6221 11.6267C20.6489 11.6209 20.6768 11.6221 20.7058 11.6302C20.7919 11.6534 20.85 11.7325 20.8465 11.8209L20.6454 16.4686C20.6314 16.7953 20.8465 17.0883 21.1617 17.1721L25.6582 18.3767C25.7186 18.393 25.7791 18.4011 25.8384 18.4011C26.093 18.4011 26.3349 18.2604 26.457 18.0255L28.2977 14.493C28.521 14.0639 29.0024 13.8523 29.4698 13.9779L30.6093 14.2837C30.9814 14.3837 31.2035 14.7674 31.1035 15.1395C31.0977 15.1616 31.093 15.1848 31.0884 15.2081C31.0861 15.2255 31.0837 15.243 31.0826 15.2593C31.0826 15.2651 31.0814 15.2697 31.0803 15.2755C31.0791 15.2953 31.0791 15.3151 31.0791 15.3348C31.0791 15.3383 31.0791 15.3407 31.0791 15.3441C31.0803 15.3639 31.0814 15.3837 31.0837 15.4034C31.0837 15.4058 31.0837 15.4093 31.0849 15.4116C31.0872 15.4302 31.0907 15.4488 31.0954 15.4674C31.0965 15.4709 31.0965 15.4755 31.0977 15.479C31.1012 15.4953 31.107 15.5116 31.1117 15.5279C31.114 15.5337 31.1151 15.5395 31.1163 15.5453C31.121 15.5593 31.1268 15.5732 31.1326 15.5872C31.1361 15.5941 31.1384 15.6011 31.1407 15.6081C31.1477 15.6221 31.1547 15.636 31.1628 15.65C31.1663 15.6558 31.1686 15.6616 31.1721 15.6686C31.1721 15.6686 31.1721 15.6686 31.1721 15.6697C31.1954 15.7093 31.221 15.7453 31.2512 15.7802C31.2524 15.7814 31.2524 15.7814 31.2535 15.7825C31.2826 15.8162 31.3151 15.8465 31.3512 15.8744C31.3512 15.8744 31.3524 15.8744 31.3524 15.8755C31.3872 15.9023 31.4256 15.9267 31.4663 15.9465C31.4663 15.9465 31.4675 15.9465 31.4675 15.9476C31.5082 15.9674 31.55 15.9837 31.5954 15.9953L34.7151 16.8314C35.0872 16.9302 35.4698 16.7104 35.5698 16.3383L37.1965 10.2686C37.2465 10.0883 37.221 9.89764 37.1291 9.73717ZM30.9721 12.936L29.8326 12.6302C28.7291 12.3348 27.5896 12.836 27.0617 13.8488L25.4791 16.8848L22.064 15.9697L22.2407 11.8802C22.2733 11.1325 21.7907 10.4755 21.0686 10.2814C20.8361 10.2186 20.5884 10.2104 20.3535 10.2569C19.8361 10.3593 18.607 10.7023 16.4256 11.8511L18.2861 9.54996C19.8977 7.5581 22.5372 6.6988 25.0128 7.36159L27.8919 8.13252L28.2535 9.03368C28.5349 9.73717 29.1407 10.2744 29.8721 10.4697L31.514 10.9093C31.7512 10.9732 31.9884 10.9918 32.2198 10.9732L31.6151 13.2314C31.4244 13.1023 31.2093 13 30.9721 12.936ZM34.4047 15.3011L32.6337 14.8267L33.8989 10.1046L35.671 10.579L34.4047 15.3011Z" fill="#00152B"/>
</svg>
